<svg xmlns="http://www.w3.org/2000/svg" viewBox="0 0 32 32" shape-rendering="crispEdges">
  <g fill="#624b3c" fill-opacity="0.133333"><rect x="23" y="20" width="1" height="1"/></g>
  <g fill="#197616" fill-opacity="0.960784"><rect x="10" y="17" width="1" height="1"/></g>
  <g fill="#eae2d3" fill-opacity="0.972549"><rect x="12" y="20" width="1" height="1"/></g>
  <g fill="#251710" fill-opacity="0.976471"><rect x="17" y="9" width="1" height="1"/></g>
  <g fill="#1b100a" fill-opacity="0.980392"><rect x="12" y="9" width="1" height="1"/></g>
  <g fill="#080301" fill-opacity="0.984314"><rect x="23" y="16" width="1" height="1"/></g>
  <g fill="#2b9026" fill-opacity="0.984314"><rect x="9" y="14" width="1" height="1"/></g>
  <g fill="#fff3dc" fill-opacity="0.984314"><rect x="13" y="16" width="1" height="1"/></g>
  <g fill="#166817" fill-opacity="0.988235"><rect x="10" y="16" width="1" height="1"/></g>
  <g fill="#c09560" fill-opacity="0.988235"><rect x="19" y="18" width="1" height="1"/></g>
  <g fill="#caa36a" fill-opacity="0.988235"><rect x="14" y="13" width="1" height="1"/></g>
  <g fill="#db0116" fill-opacity="0.988235"><rect x="6" y="14" width="1" height="1"/></g>
  <g fill="#e50213" fill-opacity="0.988235"><rect x="5" y="15" width="1" height="1"/></g>
  <g fill="#11120e" fill-opacity="0.992157"><rect x="15" y="15" width="1" height="1"/></g>
  <g fill="#12130f" fill-opacity="0.992157"><rect x="16" y="15" width="1" height="1"/></g>
  <g fill="#141311" fill-opacity="0.992157"><rect x="17" y="14" width="1" height="1"/></g>
  <g fill="#34271a" fill-opacity="0.992157"><rect x="20" y="19" width="1" height="1"/></g>
  <g fill="#34271b" fill-opacity="0.992157"><rect x="20" y="14" width="1" height="1"/></g>
  <g fill="#35271b" fill-opacity="0.992157"><rect x="16" y="10" width="1" height="1"/></g>
  <g fill="#35281b" fill-opacity="0.992157"><rect x="17" y="21" width="1" height="1"/></g>
  <g fill="#36261a" fill-opacity="0.992157"><rect x="19" y="10" width="1" height="1"/></g>
  <g fill="#36261c" fill-opacity="0.992157"><rect x="16" y="11" width="1" height="1"/><rect x="16" y="21" width="1" height="1"/></g>
  <g fill="#36271b" fill-opacity="0.992157"><rect x="24" y="15" width="1" height="1"/></g>
  <g fill="#36281a" fill-opacity="0.992157"><rect x="14" y="10" width="1" height="1"/></g>
  <g fill="#36291d" fill-opacity="0.992157"><rect x="10" y="11" width="1" height="1"/><rect x="14" y="20" width="1" height="1"/></g>
  <g fill="#37261c" fill-opacity="0.992157"><rect x="24" y="13" width="1" height="1"/></g>
  <g fill="#37271a" fill-opacity="0.992157"><rect x="13" y="21" width="1" height="1"/></g>
  <g fill="#37271b" fill-opacity="0.992157"><rect x="10" y="12" width="1" height="1"/></g>
  <g fill="#b98642" fill-opacity="0.992157"><rect x="15" y="13" width="1" height="1"/></g>
  <g fill="#cca26a" fill-opacity="0.992157"><rect x="18" y="12" width="1" height="1"/></g>
  <g fill="#cca46c" fill-opacity="0.992157"><rect x="22" y="16" width="1" height="1"/></g>
  <g fill="#cda26a" fill-opacity="0.992157"><rect x="18" y="14" width="1" height="1"/></g>
  <g fill="#d80016" fill-opacity="0.992157"><rect x="7" y="14" width="1" height="1"/></g>
  <g fill="#e60316" fill-opacity="0.992157"><rect x="8" y="15" width="1" height="1"/></g>
  <g fill="#e9be7c" fill-opacity="0.992157"><rect x="12" y="19" width="1" height="1"/></g>
  <g fill="#ed0318" fill-opacity="0.992157"><rect x="8" y="16" width="1" height="1"/></g>
  <g fill="#f9d58c" fill-opacity="0.992157"><rect x="18" y="13" width="1" height="1"/></g>
  <g fill="#fec6c0" fill-opacity="0.992157"><rect x="11" y="11" width="1" height="1"/></g>
  <g fill="#fff5de" fill-opacity="0.992157"><rect x="16" y="16" width="1" height="1"/></g>
  <g fill="#030001" fill-opacity="0.996078"><rect x="23" y="18" width="1" height="1"/></g>
  <g fill="#083406" fill-opacity="0.996078"><rect x="11" y="16" width="1" height="1"/></g>
  <g fill="#34251a" fill-opacity="0.996078"><rect x="19" y="12" width="1" height="1"/></g>
  <g fill="#34261b" fill-opacity="0.996078"><rect x="13" y="17" width="1" height="1"/></g>
  <g fill="#34271c" fill-opacity="0.996078"><rect x="21" y="16" width="1" height="1"/></g>
  <g fill="#35261a" fill-opacity="0.996078"><rect x="22" y="15" width="1" height="1"/><rect x="12" y="21" width="1" height="1"/></g>
  <g fill="#35261d" fill-opacity="0.996078"><rect x="19" y="15" width="1" height="1"/></g>
  <g fill="#35271c" fill-opacity="0.996078"><rect x="10" y="10" width="1" height="1"/><rect x="24" y="16" width="1" height="1"/><rect x="23" y="17" width="1" height="1"/></g>
  <g fill="#35271d" fill-opacity="0.996078"><rect x="24" y="14" width="1" height="1"/></g>
  <g fill="#35281b" fill-opacity="0.996078"><rect x="13" y="10" width="1" height="1"/></g>
  <g fill="#36261c" fill-opacity="0.996078"><rect x="20" y="13" width="1" height="1"/></g>
  <g fill="#36271b" fill-opacity="0.996078"><rect x="18" y="19" width="1" height="1"/></g>
  <g fill="#36281a" fill-opacity="0.996078"><rect x="20" y="15" width="1" height="1"/></g>
  <g fill="#36281b" fill-opacity="0.996078"><rect x="12" y="17" width="1" height="1"/></g>
  <g fill="#36281c" fill-opacity="0.996078"><rect x="10" y="9" width="1" height="1"/></g>
  <g fill="#36281d" fill-opacity="0.996078"><rect x="19" y="17" width="1" height="1"/></g>
  <g fill="#38281b" fill-opacity="0.996078"><rect x="23" y="15" width="1" height="1"/></g>
  <g fill="#453526" fill-opacity="0.996078"><rect x="10" y="13" width="1" height="1"/></g>
  <g fill="#52a937" fill-opacity="0.996078"><rect x="11" y="17" width="1" height="1"/></g>
  <g fill="#563e23" fill-opacity="0.996078"><rect x="12" y="18" width="1" height="1"/></g>
  <g fill="#5f4428" fill-opacity="0.996078"><rect x="22" y="19" width="1" height="1"/></g>
  <g fill="#b80212" fill-opacity="0.996078"><rect x="8" y="17" width="1" height="1"/></g>
  <g fill="#bb9150" fill-opacity="0.996078"><rect x="18" y="11" width="1" height="1"/></g>
  <g fill="#c49962" fill-opacity="0.996078"><rect x="20" y="18" width="1" height="1"/></g>
  <g fill="#c9a26c" fill-opacity="0.996078"><rect x="17" y="19" width="1" height="1"/></g>
  <g fill="#caa16a" fill-opacity="0.996078"><rect x="22" y="18" width="1" height="1"/></g>
  <g fill="#caa26b" fill-opacity="0.996078"><rect x="18" y="18" width="1" height="1"/></g>
  <g fill="#caa36a" fill-opacity="0.996078"><rect x="17" y="11" width="1" height="1"/></g>
  <g fill="#cba06b" fill-opacity="0.996078"><rect x="19" y="14" width="1" height="1"/></g>
  <g fill="#cba16a" fill-opacity="0.996078"><rect x="20" y="17" width="1" height="1"/></g>
  <g fill="#cba16b" fill-opacity="0.996078"><rect x="20" y="16" width="1" height="1"/></g>
  <g fill="#cba269" fill-opacity="0.996078"><rect x="19" y="19" width="1" height="1"/></g>
  <g fill="#cba36b" fill-opacity="0.996078"><rect x="11" y="14" width="1" height="1"/></g>
  <g fill="#cca26b" fill-opacity="0.996078"><rect x="17" y="18" width="1" height="1"/></g>
  <g fill="#cda269" fill-opacity="0.996078"><rect x="16" y="13" width="1" height="1"/></g>
  <g fill="#cda26b" fill-opacity="0.996078"><rect x="21" y="18" width="1" height="1"/></g>
  <g fill="#cda36a" fill-opacity="0.996078"><rect x="15" y="12" width="1" height="1"/></g>
  <g fill="#cda36b" fill-opacity="0.996078"><rect x="13" y="12" width="1" height="1"/></g>
  <g fill="#cda36c" fill-opacity="0.996078"><rect x="13" y="19" width="1" height="1"/></g>
  <g fill="#cea46b" fill-opacity="0.996078"><rect x="11" y="12" width="1" height="1"/></g>
  <g fill="#d10014" fill-opacity="0.996078"><rect x="6" y="16" width="1" height="1"/></g>
  <g fill="#d2a66a" fill-opacity="0.996078"><rect x="10" y="14" width="1" height="1"/></g>
  <g fill="#e0b66f" fill-opacity="0.996078"><rect x="18" y="9" width="1" height="1"/></g>
  <g fill="#e60316" fill-opacity="0.996078"><rect x="8" y="14" width="1" height="1"/></g>
  <g fill="#fcf3dc" fill-opacity="0.996078"><rect x="17" y="20" width="1" height="1"/></g>
  <g fill="#fdfff5" fill-opacity="0.996078"><rect x="11" y="15" width="1" height="1"/></g>
  <g fill="#fef5dc" fill-opacity="0.996078"><rect x="16" y="14" width="1" height="1"/></g>
  <g fill="#fef5df" fill-opacity="0.996078"><rect x="15" y="18" width="1" height="1"/></g>
  <g fill="#fef6db" fill-opacity="0.996078"><rect x="13" y="15" width="1" height="1"/></g>
  <g fill="#fff2dc" fill-opacity="0.996078"><rect x="14" y="15" width="1" height="1"/></g>
  <g fill="#fff4dd" fill-opacity="0.996078"><rect x="14" y="16" width="1" height="1"/></g>
  <g fill="#fff5de" fill-opacity="0.996078"><rect x="22" y="20" width="1" height="1"/></g>
  <g fill="#fff6db" fill-opacity="0.996078"><rect x="14" y="19" width="1" height="1"/></g>
  <g fill="#fff6dc" fill-opacity="0.996078"><rect x="14" y="18" width="1" height="1"/></g>
  <g fill="#fff7dc" fill-opacity="0.996078"><rect x="15" y="17" width="1" height="1"/></g>
  <g fill="#11100f"><rect x="15" y="14" width="1" height="1"/></g>
  <g fill="#131410"><rect x="13" y="14" width="1" height="1"/></g>
  <g fill="#16130e"><rect x="13" y="13" width="1" height="1"/></g>
  <g fill="#1e1a13"><rect x="17" y="13" width="1" height="1"/></g>
  <g fill="#241814"><rect x="23" y="19" width="1" height="1"/></g>
  <g fill="#33241c"><rect x="22" y="17" width="1" height="1"/></g>
  <g fill="#33271b"><rect x="22" y="21" width="1" height="1"/></g>
  <g fill="#33291c"><rect x="17" y="17" width="1" height="1"/></g>
  <g fill="#34251b"><rect x="18" y="16" width="1" height="1"/></g>
  <g fill="#35261a"><rect x="21" y="15" width="1" height="1"/></g>
  <g fill="#35261c"><rect x="19" y="16" width="1" height="1"/></g>
  <g fill="#35271a"><rect x="19" y="11" width="1" height="1"/><rect x="20" y="21" width="1" height="1"/></g>
  <g fill="#35271b"><rect x="18" y="17" width="1" height="1"/></g>
  <g fill="#35281a"><rect x="23" y="13" width="1" height="1"/></g>
  <g fill="#35281c"><rect x="19" y="9" width="1" height="1"/></g>
  <g fill="#36271a"><rect x="15" y="11" width="1" height="1"/></g>
  <g fill="#36281b"><rect x="21" y="21" width="1" height="1"/></g>
  <g fill="#36281e"><rect x="14" y="12" width="1" height="1"/></g>
  <g fill="#37271d"><rect x="15" y="10" width="1" height="1"/></g>
  <g fill="#38271d"><rect x="18" y="20" width="1" height="1"/></g>
  <g fill="#3c2e16"><rect x="10" y="15" width="1" height="1"/></g>
  <g fill="#423025"><rect x="19" y="13" width="1" height="1"/></g>
  <g fill="#443124"><rect x="11" y="13" width="1" height="1"/></g>
  <g fill="#8b6541"><rect x="23" y="14" width="1" height="1"/></g>
  <g fill="#a67e4d"><rect x="21" y="19" width="1" height="1"/></g>
  <g fill="#a99680"><rect x="20" y="20" width="1" height="1"/></g>
  <g fill="#b68c59"><rect x="17" y="10" width="1" height="1"/></g>
  <g fill="#c80215"><rect x="9" y="16" width="1" height="1"/></g>
  <g fill="#c9a26b"><rect x="16" y="17" width="1" height="1"/></g>
  <g fill="#c9a36a"><rect x="13" y="18" width="1" height="1"/></g>
  <g fill="#caa06c"><rect x="16" y="19" width="1" height="1"/></g>
  <g fill="#cba168"><rect x="12" y="10" width="1" height="1"/></g>
  <g fill="#cba16a"><rect x="17" y="12" width="1" height="1"/></g>
  <g fill="#cba26b"><rect x="12" y="13" width="1" height="1"/></g>
  <g fill="#cba26c"><rect x="16" y="12" width="1" height="1"/></g>
  <g fill="#cba36a"><rect x="13" y="11" width="1" height="1"/></g>
  <g fill="#cca26b"><rect x="12" y="11" width="1" height="1"/></g>
  <g fill="#cca36a"><rect x="12" y="12" width="1" height="1"/></g>
  <g fill="#cca36b"><rect x="12" y="14" width="1" height="1"/></g>
  <g fill="#cda36b"><rect x="14" y="11" width="1" height="1"/></g>
  <g fill="#cda36c"><rect x="21" y="17" width="1" height="1"/></g>
  <g fill="#d60014"><rect x="9" y="15" width="1" height="1"/></g>
  <g fill="#dc0117"><rect x="7" y="16" width="1" height="1"/></g>
  <g fill="#fab9a9"><rect x="11" y="10" width="1" height="1"/></g>
  <g fill="#fabaa8"><rect x="18" y="10" width="1" height="1"/></g>
  <g fill="#fbf0d8"><rect x="13" y="20" width="1" height="1"/></g>
  <g fill="#fbf1a2"><rect x="11" y="9" width="1" height="1"/></g>
  <g fill="#fbf2d8"><rect x="16" y="20" width="1" height="1"/></g>
  <g fill="#fcfdff"><rect x="14" y="14" width="1" height="1"/></g>
  <g fill="#fd061d"><rect x="7" y="17" width="1" height="1"/></g>
  <g fill="#fdf6db"><rect x="12" y="15" width="1" height="1"/></g>
  <g fill="#fdfffc"><rect x="12" y="16" width="1" height="1"/></g>
  <g fill="#fef5db"><rect x="17" y="16" width="1" height="1"/></g>
  <g fill="#fef5dc"><rect x="17" y="15" width="1" height="1"/></g>
  <g fill="#fef6db"><rect x="21" y="20" width="1" height="1"/></g>
  <g fill="#fef7dc"><rect x="14" y="17" width="1" height="1"/></g>
  <g fill="#ff051c"><rect x="6" y="15" width="1" height="1"/><rect x="7" y="15" width="1" height="1"/></g>
  <g fill="#fff4dc"><rect x="16" y="18" width="1" height="1"/></g>
  <g fill="#fff5dd"><rect x="15" y="19" width="1" height="1"/></g>
  <g fill="#fff7dc"><rect x="15" y="16" width="1" height="1"/></g>
  <g fill="#fffbed"><rect x="18" y="15" width="1" height="1"/></g>
</svg>
